<svg xmlns="http://www.w3.org/2000/svg" xml:space="preserve" width="2048" height="2048" style="shape-rendering:geometricPrecision;text-rendering:geometricPrecision;image-rendering:optimizeQuality;fill-rule:evenodd;clip-rule:evenodd"><defs><style>.fil0,.fil1{fill:#212121;fill-rule:nonzero}.fil1{fill:#66bb6a}</style></defs><g id="Layer_x0020_1"><path class="fil0" d="M1608.5 1792c13.254 0 24-10.746 24-24s-10.746-24-24-24H445.89c-27.934 0-53.35-11.446-71.79-29.886-18.438-18.439-29.885-43.854-29.885-71.788V303.996h1118.27v1102.98c0 13.254 10.745 24 24 24 13.254 0 24-10.746 24-24V279.996c0-13.254-10.746-24-24-24H320.215c-13.255 0-24 10.746-24 24v1362.33c0 41.185 16.833 78.61 43.947 105.726C367.28 1775.169 404.705 1792 445.89 1792H1608.5z"/><path class="fil0" d="M585.514 1406.06c0-13.254-10.746-24-24-24s-24 10.746-24 24v241.297c0 26.551-10.882 50.71-28.41 68.238-17.53 17.529-41.687 28.41-68.24 28.41-26.552 0-50.71-10.881-68.24-28.409-17.527-17.528-28.408-41.687-28.408-68.239V1406.06c0-13.254-10.746-24-24-24-13.255 0-24 10.746-24 24v241.297c0 39.803 16.267 75.972 42.471 102.177 26.205 26.204 62.374 42.471 102.177 42.471 39.803 0 75.972-16.267 102.177-42.472 26.206-26.204 42.473-62.374 42.473-102.176V1406.06z"/><path class="fil0" d="M561.514 1382.05c-13.254 0-24 10.746-24 24s10.746 24 24 24h1166.27c13.254 0 24-10.746 24-24s-10.746-24-24-24H561.514z"/><path class="fil0" d="M1751.79 1406.06c0-13.254-10.746-24-24-24s-24 10.746-24 24v241.297c0 26.551-10.882 50.71-28.41 68.238-17.528 17.529-41.686 28.41-68.239 28.41-13.254 0-24 10.746-24 24 0 13.255 10.746 24 24 24 39.804 0 75.973-16.266 102.176-42.472 26.207-26.204 42.473-62.374 42.473-102.176V1406.06z"/><path class="fil1" d="M480.741 859.246h845.219v48H480.741zM480.741 1040.22h845.219v48H480.741zM480.741 1221.19h845.219v48H480.741zM1237.76 767.999v-35.845c-17.956-2.244-32.511-6.258-43.734-12.038-11.223-5.782-20.95-15.168-29.112-28.023-8.161-12.924-12.922-28.636-14.214-47.204l36.048-6.802c2.789 19.25 7.686 33.397 14.76 42.443 10.066 12.787 22.173 19.86 36.252 21.29V587.686c-14.759-2.788-29.79-8.501-45.23-17.14-11.427-6.393-20.202-15.235-26.39-26.526-6.19-11.29-9.251-24.078-9.251-38.429 0-25.507 9.046-46.183 27.07-61.963 12.107-10.68 30.063-17.14 53.801-19.521v-17.14h21.154v17.14c20.813 1.972 37.409 8.094 49.584 18.297 15.712 12.99 25.098 30.88 28.294 53.597l-37.069 5.577c-2.108-14.08-6.529-24.894-13.262-32.376-6.667-7.482-15.848-12.447-27.547-14.828v103.386c18.023 4.557 29.995 8.094 35.844 10.611 11.155 4.897 20.269 10.882 27.275 17.888 7.074 7.073 12.515 15.44 16.256 25.098 3.809 9.727 5.713 20.2 5.713 31.49 0 24.895-7.958 45.573-23.738 62.168-15.78 16.664-36.253 25.506-61.35 26.73V768h-21.154zm0-314.032c-13.943 2.108-24.961 7.685-32.988 16.732-8.026 9.046-12.038 19.725-12.038 32.104 0 12.175 3.4 22.445 10.27 30.675 6.869 8.23 18.432 14.827 34.756 19.725v-99.236zm21.154 247.852c13.943-1.7 25.437-7.754 34.552-18.093 9.114-10.338 13.67-23.194 13.67-38.497 0-12.991-3.264-23.466-9.657-31.356-6.462-7.89-19.317-14.963-38.565-21.221v109.167zM480.741 680H1024v48H480.741zM480.741 500.755H1024v48H480.741z"/></g><path style="fill:none" d="M0 0h2048v2048H0z"/></svg>
