<svg xmlns="http://www.w3.org/2000/svg" width="16" height="16" shape-rendering="geometricPrecision" text-rendering="geometricPrecision" image-rendering="optimizeQuality" fill-rule="evenodd" clip-rule="evenodd" viewBox="0 0 512 489.435"><path fill="#1A1A1A" fill-rule="nonzero" d="M109.524 317.184c6.788 0 12.29 5.502 12.29 12.29 0 6.788-5.502 12.291-12.29 12.291H71.37L33.265 464.854h444.623l-41.373-123.089H407.93c-6.788 0-12.291-5.503-12.291-12.291s5.503-12.29 12.291-12.29h46.171L512 489.435H0l53.325-172.251h56.199zM255.789 82.697l-77.168 75.583 18.821 9.873 57.852-60.725 58.843 60.725 18.822-9.873-77.17-75.583zm-54.219 90.344l54.319-54.319 54.154 54.319v53.295l-39.558-.001v-37.643h-29.687v37.644H201.57v-53.295z"/><path fill="#EF4147" d="M266.131 425.009c-3.121 2.276-7.359 2.59-10.837.357-37.51-23.86-69.044-52.541-93.797-83.672-34.164-42.861-55.708-90.406-63.066-136.169-7.493-46.427-.492-91.073 22.612-127.381 9.098-14.36 20.739-27.428 34.923-38.714C188.57 13.428 225.81-.263 262.875.004c35.726.268 70.96 13.601 101.422 41.39 10.707 9.723 19.715 20.872 27.075 32.96 24.843 40.898 30.195 93.083 19.269 145.981-17.047 82.829-71.772 160.521-144.51 204.674zM255.789 37.251c69.041 0 125.006 55.965 125.006 125.005 0 69.041-55.965 125.006-125.006 125.006-69.04 0-125.005-55.965-125.005-125.006 0-69.04 55.965-125.005 125.005-125.005z"/></svg>
