<svg xmlns="http://www.w3.org/2000/svg" xml:space="preserve" width="2048" height="2048" style="shape-rendering:geometricPrecision;text-rendering:geometricPrecision;image-rendering:optimizeQuality;fill-rule:evenodd;clip-rule:evenodd"><defs><style>.fil0,.fil1{fill:#212121;fill-rule:nonzero}.fil1{fill:#66bb6a}</style></defs><g id="Layer_x0020_1"><path class="fil0" d="M1630.94 929.59v813.282c0 13.254-10.746 24-24 24H441.06c-13.254 0-24-10.746-24-24V929.59H279.999c-13.254 0-24-10.746-24-24 0-8.163 4.076-15.372 10.303-19.708L1008.966 286.5l-.04-.048c9.427-7.608 22.859-6.915 31.456 1.135L1783 886.933l-15 18.656 15.073-18.676c10.315 8.324 11.928 23.435 3.604 33.75-4.739 5.87-11.677 8.922-18.677 8.926h-137.06zm-48 789.282V905.59c0-13.254 10.746-24 24-24h93.207L1024 335.891 347.853 881.59h93.208c13.254 0 24 10.746 24 24v813.282h1117.88z"/><path class="fil0" d="M857.447 1081.45h333.108c13.254 0 24 10.746 24 24v637.417c0 13.254-10.746 24-24 24H857.447c-13.254 0-24-10.746-24-24V1105.45c0-13.254 10.746-24 24-24zm309.108 48H881.447v589.417h285.108V1129.45zM565.976 1316.89H732.53c13.254 0 24 10.746 24 24v166.554c0 13.254-10.746 24-24 24H565.976c-13.254 0-24-10.746-24-24V1340.89c0-13.254 10.746-24 24-24zm142.554 48H589.976v118.554H708.53V1364.89zM1315.47 1316.89h166.554c13.254 0 24 10.746 24 24v166.554c0 13.254-10.746 24-24 24H1315.47c-13.254 0-24-10.746-24-24V1340.89c0-13.254 10.746-24 24-24zm142.554 48H1339.47v118.554h118.554V1364.89z"/><path class="fil1" d="M590.959 881.59h866.081v48H590.959zM1024 515.17c38.82 0 73.968 15.737 99.409 41.178 25.44 25.441 41.178 60.59 41.178 99.409s-15.737 73.966-41.178 99.407c-25.441 25.441-60.59 41.18-99.409 41.18-38.82 0-73.968-15.739-99.409-41.18-25.44-25.44-41.178-60.588-41.178-99.407 0-38.82 15.737-73.968 41.178-99.409 25.441-25.441 60.59-41.178 99.409-41.178zm65.47 75.116c-16.752-16.753-39.901-27.116-65.47-27.116-25.569 0-48.718 10.363-65.47 27.116-16.754 16.753-27.117 39.902-27.117 65.47 0 25.57 10.363 48.718 27.116 65.47 16.753 16.753 39.902 27.117 65.471 27.117 25.569 0 48.718-10.364 65.47-27.117 16.754-16.752 27.117-39.9 27.117-65.47 0-25.568-10.363-48.717-27.116-65.47z"/></g><path style="fill:none" d="M0 0h2048v2048H0z"/></svg>
