<svg width="8002" height="6298" viewBox="0 0 8002 6298" fill="none" xmlns="http://www.w3.org/2000/svg">
<path d="M7458.13 1530.74C7574.57 1100.33 7351.33 636.763 6913.6 551.877C6083.92 390.981 5415.04 565.143 4827.23 864.128C4228.48 1168.68 4010.96 1681.32 3796.8 2312.81C3697.94 2604.34 3840.87 2924.9 4123.05 3047.93V3047.93C4438.02 3185.26 4788.93 3013.01 4988.6 2733.37C5150.88 2506.09 5358.97 2336.95 5641 2193.5C5828.22 2098.27 5990.77 2027.65 6755.88 2007.44C7063.61 1999.31 7341.3 1815.56 7458.13 1530.74V1530.74V1530.74Z" fill="#CD462D"/>
<path d="M2084 3869L2084 2244L4042 2244V3869L2084 3869Z" fill="#CD462D"/>
<path d="M526 1426C526 873.715 973.715 426 1526 426H1655C2207.28 426 2655 873.715 2655 1426V4698C2655 5250.28 2207.28 5698 1655 5698H1526C973.715 5698 526 5250.28 526 4698V1426Z" fill="#CD462D"/>
<path d="M2977 1426C2977 873.715 3424.72 426 3977 426H4106C4658.28 426 5106 873.715 5106 1426V4698C5106 5250.28 4658.28 5698 4106 5698H3977C3424.72 5698 2977 5250.28 2977 4698V1426Z" fill="#CD462D"/>
<path d="M799 1436C799 998.59 1153.59 644 1591 644V644C2028.41 644 2383 998.59 2383 1436V4689C2383 5126.41 2028.41 5481 1591 5481V5481C1153.59 5481 799 5126.41 799 4689V1436Z" fill="#2D8282"/>
<path d="M2084 3677V2448L4042 2448V3677L2084 3677Z" fill="#2D8282"/>
<path d="M7082.51 1580.14C7359.14 1321.14 7345.88 881.105 6981.59 776.743C6490.77 636.133 5875.77 657.409 5361.5 866.5C5238.65 916.447 4332.59 1408.48 3885.37 2011.23C3706.06 2252.91 3768.16 2573.69 3941.78 2819.48L4129.6 3085.38C4150.19 3114.54 4178.66 3137.24 4211.68 3150.82V3150.82C4311.57 3191.93 4424.99 3140.07 4474.66 3044.14C4774.71 2464.63 5469.72 2013.99 5708.5 1926.5C5833.08 1880.85 5951.08 1841.22 6065.25 1823.39C6408.39 1769.82 6829 1817.5 7082.51 1580.14V1580.14Z" fill="#20304A"/>
<rect x="3259" y="644" width="1584" height="4837" rx="792" fill="url(#paint0_linear_614_32)"/>
<defs>
<linearGradient id="paint0_linear_614_32" x1="2960" y1="2524" x2="4542" y2="2533" gradientUnits="userSpaceOnUse">
<stop stop-color="#2D8282"/>
<stop offset="1" stop-color="#20304A"/>
</linearGradient>
</defs>
</svg>
