<svg width="77.48000297546388" height="6.7194686476127305" viewBox="0 0 370.3170731707317 32.11582172543849" class="looka-1j8o68f"><defs id="SvgjsDefs1113"><linearGradient id="SvgjsLinearGradient1118"><stop id="SvgjsStop1119" stop-color="#905e26" offset="0"></stop><stop id="SvgjsStop1120" stop-color="#f5ec9b" offset="0.5"></stop><stop id="SvgjsStop1121" stop-color="#905e26" offset="1"></stop></linearGradient><linearGradient id="SvgjsLinearGradient1122"><stop id="SvgjsStop1123" stop-color="#905e26" offset="0"></stop><stop id="SvgjsStop1124" stop-color="#f5ec9b" offset="0.5"></stop><stop id="SvgjsStop1125" stop-color="#905e26" offset="1"></stop></linearGradient></defs><g id="SvgjsG1114" featurekey="Df7oLJ-0" transform="matrix(0.4934442408007896,0,0,0.4934442408007896,-2.3438601438037505,-7.81270275495124)" fill="url(#SvgjsLinearGradient1118)"><g xmlns="http://www.w3.org/2000/svg" display="none"><g display="inline" opacity="0.2"><g><path fill="url(#SvgjsLinearGradient1118)" stroke="url(#SvgjsLinearGradient1118)" stroke-width="0.5" stroke-miterlimit="10" d="M90.593,84.537     c0,3.331-2.727,6.058-6.057,6.058H11.651c-3.331,0-6.057-2.727-6.057-6.058V11.651c0-3.331,2.726-6.057,6.057-6.057h72.886     c3.33,0,6.057,2.726,6.057,6.057V84.537z"></path><path fill="url(#SvgjsLinearGradient1118)" stroke="url(#SvgjsLinearGradient1118)" stroke-width="0.5" stroke-miterlimit="10" d="M20.738,94.594     c-3.073,0-5.589-2.564-5.589-5.703V7.295c0-3.136,2.516-5.701,5.589-5.701h54.541c3.074,0,5.588,2.565,5.588,5.701v81.596     c0,3.139-2.514,5.703-5.588,5.703H20.738z"></path><path fill="url(#SvgjsLinearGradient1118)" stroke="url(#SvgjsLinearGradient1118)" stroke-width="0.5" stroke-miterlimit="10" d="M7.266,80.885     c-3.176,0-5.774-2.486-5.774-5.529V20.643c0-3.04,2.599-5.527,5.774-5.527h81.448c3.176,0,5.773,2.487,5.773,5.527v54.713     c0,3.043-2.598,5.529-5.773,5.529H7.266z"></path></g><circle fill="url(#SvgjsLinearGradient1118)" stroke="url(#SvgjsLinearGradient1118)" stroke-width="0.5" stroke-miterlimit="10" cx="48" cy="48" r="19.363"></circle><circle fill="url(#SvgjsLinearGradient1118)" stroke="url(#SvgjsLinearGradient1118)" stroke-width="0.5" stroke-miterlimit="10" cx="48" cy="48" r="46.5"></circle><line fill="url(#SvgjsLinearGradient1118)" stroke="url(#SvgjsLinearGradient1118)" stroke-width="0.5" stroke-miterlimit="10" x1="0.008" y1="0.008" x2="95.992" y2="95.993"></line><line fill="url(#SvgjsLinearGradient1118)" stroke="url(#SvgjsLinearGradient1118)" stroke-width="0.5" stroke-miterlimit="10" x1="95.992" y1="0.008" x2="0.008" y2="95.993"></line></g></g><g xmlns="http://www.w3.org/2000/svg"><path d="M47.188,49.803v-7.096h7.702v-5.692H38.476v5.692h7.212v7.096C31.25,50.196,19.585,61.861,19.192,76.299H4.75v4.619h86.5   v-4.619H73.684C73.292,61.861,61.626,50.196,47.188,49.803z M39.976,41.208v-2.692H53.39v2.692H39.976z M46.438,51.284   c13.955,0,25.347,11.155,25.746,25.016H20.692C21.091,62.439,32.483,51.284,46.438,51.284z M89.75,79.418H6.25v-1.619h83.5V79.418z   "></path><rect x="45.688" y="15.833" width="1.5" height="11.163"></rect><rect x="19.913" y="29.85" transform="matrix(0.7349 0.6781 -0.6781 0.7349 27.4261 -8.9658)" width="10.538" height="1.5"></rect><rect x="12.819" y="47.464" transform="matrix(0.2578 0.9662 -0.9662 0.2578 61.8833 26.6889)" width="1.5" height="12.323"></rect><rect x="19.355" y="40.967" transform="matrix(0.9141 0.4055 -0.4055 0.9141 18.7481 -5.0584)" width="3.914" height="1.5"></rect><rect x="32.227" y="24.788" transform="matrix(0.6399 0.7684 -0.7684 0.6399 31.925 -17.0583)" width="3.877" height="1.5"></rect><rect x="66.945" y="25.332" transform="matrix(0.6782 0.7349 -0.7349 0.6782 44.2694 -39.8993)" width="1.5" height="10.538"></rect><rect x="73.146" y="52.876" transform="matrix(-0.9662 -0.2577 0.2577 -0.9662 142.1172 125.8775)" width="12.323" height="1.5"></rect><rect x="69.608" y="40.967" transform="matrix(-0.9141 0.4055 -0.4055 -0.9141 153.8984 50.8276)" width="3.914" height="1.5"></rect><rect x="57.962" y="23.6" transform="matrix(0.7683 0.6401 -0.6401 0.7683 29.9474 -31.6622)" width="1.5" height="3.876"></rect></g></g><g id="SvgjsG1115" featurekey="Ua4uQk-0" transform="matrix(1.6651335708066608,0,0,1.6651335708066608,61.00183963563225,-8.657776616272777)" fill="url(#SvgjsLinearGradient1122)"><path d="M6.18 6 c3.14 0 5.22 1.9 5.22 4.82 c0 2.88 -2.08 4.6 -5.22 4.6 l-1.76 0 l0 4.58 l-3.22 0 l0 -14 l4.98 0 z M5.98 12.68 c1.3 0 2.2 -0.46 2.2 -1.86 c0 -1.38 -0.9 -1.86 -2.2 -1.86 l-1.56 0 l0 3.72 l1.56 0 z M20.6 9.6 l3.16 0 l0 10.4 l-3.16 0 l0 -1.04 c-0.14 0.36 -1.08 1.24 -2.68 1.24 c-2.38 0 -5.12 -1.7 -5.12 -5.42 c0 -3.58 2.74 -5.36 5.12 -5.36 c1.6 0 2.54 0.92 2.68 1.14 l0 -0.96 z M18.38 17.42 c1.3 0 2.36 -0.9 2.36 -2.64 c0 -1.68 -1.06 -2.58 -2.36 -2.58 c-1.36 0 -2.52 0.92 -2.52 2.58 c0 1.72 1.16 2.64 2.52 2.64 z M31.64 9.42 c2.38 0 5.12 1.78 5.12 5.36 c0 3.72 -2.74 5.42 -5.12 5.42 c-1.6 0 -2.54 -0.88 -2.68 -1.24 l0 4.84 l-3.16 0 l0 -6.02 l0 -8.18 l3.16 0 l0 0.96 c0.14 -0.22 1.08 -1.14 2.68 -1.14 z M31.18 17.42 c1.36 0 2.52 -0.92 2.52 -2.64 c0 -1.66 -1.16 -2.58 -2.52 -2.58 c-1.3 0 -2.36 0.9 -2.36 2.58 c0 1.74 1.06 2.64 2.36 2.64 z M43.64 9.42 c2.36 0 5.66 1.78 5 6.48 l-7.26 0 c0.36 1.08 1.3 1.64 2.56 1.64 c1.28 0 1.68 -0.28 2.4 -0.58 l1.74 1.68 c-0.92 0.9 -2.16 1.56 -4.26 1.56 c-2.58 0 -5.66 -1.78 -5.66 -5.36 c0 -3.64 3.12 -5.42 5.48 -5.42 z M43.64 12.120000000000001 c-0.9 0 -1.82 0.52 -2.22 1.56 l4.42 0 c-0.32 -1.04 -1.3 -1.56 -2.2 -1.56 z M57.120000000000005 9.44 c0.28 0 0.56 0 0.82 0.06 l0 3.02 c-0.24 -0.06 -0.52 -0.06 -0.72 -0.06 c-1.92 0 -3.46 1.38 -3.62 3.3 l0 4.24 l-3.16 0 l0 -10.4 l3.16 0 l0 2.54 c0.48 -1.56 1.68 -2.7 3.52 -2.7 z M77.56 18.5 c-1.26 1.12 -2.9 1.7 -4.8 1.7 c-3.96 0 -7.32 -2.94 -7.32 -7.2 s3.36 -7.2 7.32 -7.2 c1.88 0 3.5 0.6 4.72 1.66 l-1.94 2.18 c-0.7 -0.48 -1.64 -0.82 -2.58 -0.82 c-2.46 0 -4.16 1.76 -4.16 4.18 s1.7 4.18 4.16 4.18 c0.98 0 1.98 -0.38 2.68 -0.94 z M84.44 9.42 c2.36 0 5.48 1.78 5.48 5.42 c0 3.66 -3.12 5.36 -5.48 5.36 s-5.48 -1.7 -5.48 -5.36 c0 -3.64 3.12 -5.42 5.48 -5.42 z M84.44 12.2 c-1.2 0 -2.42 0.92 -2.42 2.64 c0 1.66 1.22 2.58 2.42 2.58 s2.44 -0.92 2.44 -2.58 c0 -1.72 -1.24 -2.64 -2.44 -2.64 z M95.44 20.16 c-1.94 0 -3.92 -1.3 -3.92 -4.6 l0 -5.96 l3.16 0 l0 5.74 c0 1.58 0.54 2.08 1.54 2.08 c1.42 0 2.24 -1.38 2.44 -1.98 l0 -5.84 l3.16 0 l0 10.4 l-3.16 0 l0 -1.8 c-0.2 0.5 -1.26 1.96 -3.22 1.96 z M110.24000000000001 9.44 c1.94 0 3.92 1.3 3.92 4.6 l0 5.96 l-3.16 0 l0 -5.74 c0 -1.58 -0.54 -2.08 -1.54 -2.08 c-1.42 0 -2.24 1.38 -2.44 1.98 l0 5.84 l-3.16 0 l0 -10.4 l3.16 0 l0 1.8 c0.2 -0.5 1.26 -1.96 3.22 -1.96 z M121.14 17.36 c0.56 0 0.96 -0.08 1.4 -0.2 l0 2.62 c-0.44 0.2 -1.16 0.34 -2.22 0.34 c-1.74 0 -3.2 -0.58 -3.2 -3.78 l0 -4.14 l-1.46 0 l0 -2.6 l1.46 0 l0 -2.44 l3.16 0 l0 2.44 l2.22 0 l0 2.6 l-2.22 0 l0 4.14 c0 0.46 0.12 1.02 0.86 1.02 z M130.9 9.44 c0.28 0 0.56 0 0.82 0.06 l0 3.02 c-0.24 -0.06 -0.52 -0.06 -0.72 -0.06 c-1.92 0 -3.46 1.38 -3.62 3.3 l0 4.24 l-3.16 0 l0 -10.4 l3.16 0 l0 2.54 c0.48 -1.56 1.68 -2.7 3.52 -2.7 z M141.78 9.56 l3.14 0 l-6.36 14.24 l-3.16 0 l1.92 -4.16 l-4.5 -10.08 l3.14 0 l2.92 6.68 z M155.83999999999997 6 l0 14 l-3.22 0 l0 -14 l3.22 0 z M164.44 9.44 c1.94 0 3.92 1.3 3.92 4.6 l0 5.96 l-3.16 0 l0 -5.74 c0 -1.58 -0.54 -2.08 -1.54 -2.08 c-1.42 0 -2.24 1.38 -2.44 1.98 l0 5.84 l-3.16 0 l0 -10.4 l3.16 0 l0 1.8 c0.2 -0.5 1.26 -1.96 3.22 -1.96 z M176.66 9.44 c1.94 0 3.92 1.3 3.92 4.6 l0 5.96 l-3.16 0 l0 -5.74 c0 -1.58 -0.54 -2.08 -1.54 -2.08 c-1.42 0 -2.24 1.38 -2.44 1.98 l0 5.84 l-3.16 0 l0 -10.4 l3.16 0 l0 1.8 c0.2 -0.5 1.26 -1.96 3.22 -1.96 z M183.95999999999998 20.1 c-0.96 0 -1.78 -0.82 -1.78 -1.78 c0 -0.98 0.82 -1.8 1.78 -1.8 c0.98 0 1.8 0.82 1.8 1.8 c0 0.96 -0.82 1.78 -1.8 1.78 z"></path></g></svg>
