<svg xmlns="http://www.w3.org/2000/svg" xml:space="preserve" width="2048" height="2048" style="shape-rendering:geometricPrecision;text-rendering:geometricPrecision;image-rendering:optimizeQuality;fill-rule:evenodd;clip-rule:evenodd"><defs><style>.fil0,.fil1{fill:#212121;fill-rule:nonzero}.fil0{fill:#66bb6a}</style></defs><g id="Layer_x0020_1"><path class="fil0" d="M932.44 842.819h22.21c6.459 0 12.32 2.552 16.634 6.702 8.588 6.857 17.527 12.328 26.688 16.026 8.423 3.4 17.133 5.268 26.03 5.268 8.896 0 17.606-1.868 26.029-5.268 9.678-3.906 19.105-9.79 28.134-17.197l15.187 18.469-15.222-18.555a23.907 23.907 0 0 1 15.222-5.445h22.211c51.846 0 98.962 21.194 133.104 55.335 34.141 34.142 55.335 81.258 55.335 133.104v98.665c0 13.255-10.746 24-24 24H768c-13.255 0-24-10.745-24-24v-98.665c0-51.846 21.193-98.963 55.334-133.104 34.143-34.141 81.26-55.335 133.104-55.335zm14.101 48H932.44c-38.595 0-73.7 15.808-99.167 41.273-25.464 25.465-41.272 60.571-41.272 99.166v74.666h464v-74.666c0-38.595-15.807-73.7-41.272-99.167-25.465-25.464-60.571-41.272-99.166-41.272h-14.101c-10.697 7.948-21.932 14.45-33.618 19.166-14.12 5.7-28.786 8.83-43.843 8.83-15.056 0-29.722-3.13-43.842-8.83-11.686-4.716-22.922-11.218-33.618-19.166zM1024 403.041c54.447 0 104.081 13.367 139.559 41.737 33.349 26.666 53.71 65.508 53.71 117.619 0 55.25-24.17 129.036-62.413 184.52-33.885 49.16-79.392 85.056-130.856 85.056-51.465 0-96.971-35.896-130.856-85.056-38.245-55.485-62.415-129.27-62.415-184.52 0-52.11 20.363-90.952 53.711-117.62 35.478-28.37 85.113-41.736 139.559-41.736zm109.746 79.05c-26.394-21.106-65.551-31.05-109.746-31.05-44.194 0-83.352 9.944-109.746 31.05-22.057 17.637-35.524 44.087-35.524 80.306 0 46.623 20.83 109.517 53.79 157.334 25.592 37.129 57.85 64.242 91.48 64.242s65.888-27.113 91.48-64.242c32.96-47.817 53.79-110.711 53.79-157.334 0-36.219-13.467-62.669-35.524-80.306z"/><path class="fil1" d="M1471.79 1372.72h18.93c6.45 0 12.303 2.545 16.616 6.685 6.978 5.543 14.22 9.961 21.62 12.948 6.758 2.729 13.741 4.226 20.868 4.226 7.126 0 14.11-1.497 20.87-4.226 7.904-3.19 15.63-8.017 23.047-14.102l15.188 18.469-15.223-18.554a23.894 23.894 0 0 1 15.223-5.446h18.929c45.166 0 86.21 18.46 115.947 48.198 29.738 29.74 48.199 70.783 48.199 115.947v84.089c0 13.254-10.746 24-24 24h-436.36c-13.254 0-24-10.746-24-24v-84.089c0-45.165 18.46-86.208 48.198-115.947 29.74-29.737 70.783-48.198 115.948-48.198zm10.874 48h-10.874c-31.915 0-60.947 13.075-82.01 34.136-21.061 21.062-34.136 50.094-34.136 82.009v60.089h388.36v-60.09c0-31.912-13.075-60.945-34.136-82.008-21.062-21.061-50.094-34.136-82.009-34.136h-10.874c-9.069 6.632-18.584 12.078-28.478 16.071-12.457 5.028-25.396 7.788-38.682 7.788-13.286 0-26.225-2.76-38.683-7.788-9.893-3.994-19.409-9.44-28.477-16.071zM1549.82 990.914c47.16 0 90.235 11.643 121.143 36.36 29.256 23.394 47.119 57.415 47.119 102.998 0 47.726-20.847 111.415-53.831 159.268-29.49 42.785-69.252 74.028-114.431 74.028s-84.942-31.242-114.432-74.026c-32.984-47.855-53.83-111.543-53.83-159.27 0-45.583 17.863-79.603 47.119-102.997 30.908-24.717 73.984-36.36 121.143-36.36zm91.33 73.674c-21.824-17.452-54.422-25.674-91.33-25.674s-69.506 8.222-91.33 25.674c-17.963 14.364-28.932 35.992-28.932 65.684 0 39.099 17.506 91.896 45.205 132.083 21.199 30.755 47.712 53.214 75.057 53.214s53.857-22.46 75.056-53.215c27.7-40.186 45.206-92.984 45.206-132.082 0-29.693-10.969-51.32-28.932-65.684zM420.146 1372.72h18.93a23.92 23.92 0 0 1 16.61 6.68c6.98 5.544 14.225 9.965 21.625 12.953 6.76 2.729 13.744 4.226 20.87 4.226 7.126 0 14.11-1.497 20.868-4.226 7.906-3.19 15.632-8.017 23.05-14.102l15.187 18.469-15.222-18.555a23.907 23.907 0 0 1 15.222-5.445h18.93c45.164 0 86.207 18.46 115.947 48.198 29.737 29.74 48.198 70.783 48.198 115.947v84.09c0 13.253-10.746 24-24 24h-436.36c-13.254 0-24-10.747-24-24v-84.09c0-45.164 18.46-86.207 48.199-115.947 29.737-29.737 70.78-48.198 115.947-48.198zm10.874 48h-10.874c-31.915 0-60.947 13.075-82.009 34.136-21.061 21.063-34.136 50.095-34.136 82.009v60.089h388.36v-60.09c0-31.912-13.075-60.945-34.136-82.008-21.063-21.061-50.095-34.136-82.009-34.136h-10.875c-9.07 6.632-18.585 12.078-28.478 16.071-12.457 5.028-25.396 7.788-38.682 7.788-13.287 0-26.226-2.76-38.683-7.788-9.893-3.994-19.409-9.44-28.477-16.071zM498.18 990.914c47.16 0 90.235 11.643 121.143 36.36 29.256 23.394 47.119 57.415 47.119 102.998 0 47.726-20.847 111.415-53.83 159.27-29.491 42.784-69.254 74.026-114.432 74.026-45.18 0-84.942-31.244-114.431-74.028-32.985-47.853-53.831-111.542-53.831-159.268 0-45.583 17.863-79.604 47.119-102.998 30.908-24.717 73.984-36.36 121.143-36.36zm91.33 73.674c-21.824-17.452-54.422-25.674-91.33-25.674s-69.506 8.222-91.33 25.674c-17.963 14.364-28.932 35.992-28.932 65.684 0 39.097 17.506 91.896 45.206 132.082 21.199 30.755 47.711 53.215 75.056 53.215s53.858-22.459 75.057-53.213c27.699-40.187 45.205-92.985 45.205-132.083 0-29.693-10.969-51.32-28.932-65.685z"/></g><path style="fill:none" d="M0 0h2048v2048H0z"/></svg>
