<svg xmlns="http://www.w3.org/2000/svg" xml:space="preserve" width="2048" height="2048" style="shape-rendering:geometricPrecision;text-rendering:geometricPrecision;image-rendering:optimizeQuality;fill-rule:evenodd;clip-rule:evenodd"><defs><style>.fil0,.fil1{fill:#212121;fill-rule:nonzero}.fil1{fill:#66bb6a}</style></defs><g id="Layer_x0020_1"><path class="fil0" d="M421.179 255.999h1205.64c13.254 0 24 10.746 24 24v1488c0 13.254-10.746 24-24 24H421.179c-13.254 0-24-10.746-24-24v-1488c0-13.254 10.746-24 24-24zm1181.64 48H445.179v1440h1157.64v-1440z"/><path class="fil0" d="M533.696 366.975h980.61c13.254 0 24 10.746 24 24v1266.05c0 13.254-10.746 24-24 24h-980.61c-13.254 0-24-10.746-24-24V390.975c0-13.254 10.746-24 24-24zm956.61 48h-932.61v1218.05h932.61V414.975z"/><g id="_475132704"><path id="_475133760" class="fil1" d="M639.997 1017.96H1408v48H639.997z"/><path id="_475132968" class="fil1" d="M639.997 1246.02H1408v48H639.997z"/><path id="_475133184" class="fil1" d="M639.997 1474.07H1408v48H639.997z"/><path id="_475133160" class="fil1" d="M639.997 771.942H1408v48H639.997z"/><path id="_475133280" class="fil1" d="M639.997 525.925H1408v48H639.997z"/></g></g><path style="fill:none" d="M0 0h2048v2048H0z"/></svg>
